<svg width="32" height="32" viewBox="0 0 32 32" fill="none" xmlns="http://www.w3.org/2000/svg">
<g clip-path="url(#clip0_10799_18)">
<path d="M23.4667 0H8.53333C3.8205 0 0 3.8205 0 8.53333V23.4667C0 28.1795 3.8205 32 8.53333 32H23.4667C28.1795 32 32 28.1795 32 23.4667V8.53333C32 3.8205 28.1795 0 23.4667 0Z" fill="black"/>
<path d="M8.93337 23.5447L5.2002 24.5046V7.49561L8.93337 8.45556V23.5447Z" fill="#2F57C2"/>
<path d="M26.9737 24.5401L23.2334 25.5V6.5L26.9737 7.45284V24.5401Z" fill="#78DED4"/>
<path d="M14.8572 24.0638L11.124 25.0237V15.0046L14.8572 15.9646V24.0638Z" fill="#3A8DDE"/>
<path d="M17.2958 13.5185L21.0361 12.5585V22.5777L17.2958 21.6177V13.5185Z" fill="#1ECAD3"/>
</g>
<defs>
<clipPath id="clip0_10799_18">
<rect width="32" height="32" fill="white"/>
</clipPath>
</defs>
</svg>
