<svg width="38" height="38" viewBox="0 0 38 38" fill="none" xmlns="http://www.w3.org/2000/svg">
<path d="M0 9.12487C0 4.08612 4.08611 0.00170898 9.12696 0.00170898H28.8715C33.9139 0.00170898 38 4.08612 38 9.12487V30.4017C38 34.5991 34.5974 38.0017 30.4 38.0017H9.12696C4.08611 38.0017 0 33.9173 0 28.8785V9.12487Z" fill="black"/>
<path d="M17.4093 4.00008C14.0832 4.00008 11.1282 6.11247 10.0985 9.23209C7.95999 9.66685 6.1138 10.9877 5.03196 12.8595C3.36384 15.7037 3.74517 19.2796 5.97941 21.7172C5.28898 23.7599 5.52584 25.9935 6.62784 27.8437C8.28589 30.6978 11.6221 32.1614 14.8861 31.481C16.3325 33.0906 18.4105 34.0082 20.591 33.9999C23.9172 33.9999 26.8721 31.8876 27.9035 28.7679C30.0454 28.3315 31.8882 27.0107 32.96 25.1422C34.6382 22.298 34.2568 18.7221 32.0226 16.2828V16.2728C32.713 14.2301 32.4762 11.995 31.3742 10.1365C29.7161 7.29228 26.3799 5.82871 23.126 6.50906C21.6712 4.90278 19.5898 3.99012 17.4093 4.00008ZM17.4093 5.94985L17.3992 5.9598C18.7381 5.9598 20.0249 6.41613 21.0547 7.26076C21.0127 7.28067 20.9303 7.33211 20.8699 7.36198L14.8139 10.8068C14.5048 10.9794 14.32 11.3047 14.32 11.6598V19.7459L11.7145 18.2624V11.5785C11.7128 8.47376 14.2612 5.95483 17.4093 5.94985ZM24.7034 8.3045C26.7461 8.30118 28.6343 9.3748 29.654 11.1221C30.3125 12.2605 30.5594 13.5913 30.3326 14.8806C30.2906 14.8507 30.21 14.8093 30.1579 14.7794L24.1036 11.3246C23.7945 11.152 23.4149 11.152 23.1058 11.3246L16.01 15.3685V12.4015L21.8677 9.05952C22.7295 8.56668 23.7072 8.30616 24.7034 8.3045ZM9.72722 11.3743V18.4748C9.72722 18.8299 9.91201 19.1452 10.2211 19.3277L17.3052 23.36L14.6896 24.8535L8.84025 21.5214C6.11884 19.9649 5.18819 16.5284 6.76055 13.8418C7.42747 12.7035 8.47571 11.8307 9.72722 11.3743ZM23.299 13.1333L29.1584 16.4653C31.8882 18.0202 32.8138 21.4534 31.2381 24.1449L31.2482 24.1549C30.5796 25.2932 29.528 26.166 28.2832 26.6141V19.5119C28.2832 19.1568 28.0984 18.8316 27.7893 18.659L20.6952 14.6151L23.299 13.1333ZM18.9951 15.5809L21.982 17.2867V20.6901L18.9951 22.3959L16.0083 20.6901V17.2867L18.9951 15.5809ZM23.6904 18.2624L26.2959 19.7459V26.4199C26.2959 29.5279 23.7425 32.0485 20.6011 32.0485V32.0386C19.2723 32.0386 17.9754 31.5806 16.9558 30.7376C16.9977 30.7177 17.0901 30.6663 17.1405 30.6364L23.1948 27.1932C23.5039 27.0206 23.6988 26.6954 23.6887 26.3403L23.6904 18.2624ZM21.9904 22.6316V25.5985L16.1309 28.9306C13.4011 30.4754 9.92209 29.5611 8.34636 26.8779H8.35644C7.68785 25.7495 7.44931 24.4088 7.67609 23.1194C7.71809 23.1493 7.8004 23.1908 7.8508 23.2206L13.9051 26.6755C14.2142 26.848 14.5938 26.848 14.9029 26.6755L21.9904 22.6316Z" fill="white"/>
</svg>
