<?xml version="1.0" encoding="UTF-8"?>
<!DOCTYPE svg PUBLIC "-//W3C//DTD SVG 1.1//EN" "http://www.w3.org/Graphics/SVG/1.1/DTD/svg11.dtd">
<svg xmlns="http://www.w3.org/2000/svg" version="1.1" width="1024px" height="1024px" style="shape-rendering:geometricPrecision; text-rendering:geometricPrecision; image-rendering:optimizeQuality; fill-rule:evenodd; clip-rule:evenodd" xmlns:xlink="http://www.w3.org/1999/xlink">
<g><path style="opacity:0.983" fill="#fefffe" d="M 1023.5,20.5 C 1023.5,21.1667 1023.5,21.8333 1023.5,22.5C 991.047,65.3761 960.547,109.709 932,155.5C 908.461,194.45 893.461,236.45 887,281.5C 883.556,311.535 883.89,341.535 888,371.5C 892.562,400.311 897.896,428.978 904,457.5C 922.229,586.802 886.395,698.302 796.5,792C 703.251,880.634 592.584,915.968 464.5,898C 405.471,887.639 351.471,865.472 302.5,831.5C 341.015,812.826 379.848,794.826 419,777.5C 492.433,805.984 565.6,805.484 638.5,776C 736.29,728.653 791.457,650.82 804,542.5C 807.3,497.93 800.633,454.93 784,413.5C 775.753,396.638 762.586,390.804 744.5,396C 741.833,397.333 739.167,398.667 736.5,400C 622.948,484.552 509.115,568.719 395,652.5C 394.833,652.167 394.667,651.833 394.5,651.5C 506.819,538.014 619.319,424.68 732,311.5C 829.035,214.299 926.201,117.299 1023.5,20.5 Z"/></g>
<g><path style="opacity:0.985" fill="#fefffe" d="M -0.5,1004.5 C -0.5,1003.83 -0.5,1003.17 -0.5,1002.5C 7.75587,991.732 16.2559,981.066 25,970.5C 49.9669,943.198 75.3003,916.198 101,889.5C 124.409,864.766 144.742,837.766 162,808.5C 183.734,769.963 189.067,729.296 178,686.5C 170.095,665.358 162.762,644.025 156,622.5C 125.134,497.345 148.134,383.345 225,280.5C 302.719,186.146 403.053,137.813 526,135.5C 600.035,135.961 668.535,155.461 731.5,194C 737.779,197.946 743.779,202.279 749.5,207C 711.025,225.603 672.192,243.437 633,260.5C 546.981,228.012 463.814,234.179 383.5,279C 305.526,327.686 259.693,397.853 246,489.5C 236.617,577.033 263.117,651.533 325.5,713C 216.962,810.374 108.296,907.541 -0.5,1004.5 Z"/></g>
</svg>
